<svg width="281" height="300" viewBox="0 0 281 300" fill="none" xmlns="http://www.w3.org/2000/svg">
<path d="M243.596 70.7577L255.654 56.9766" stroke="#2D516C" stroke-width="2"/>
<path d="M254.726 64.4226C254.635 64.7775 254.305 65.0621 254.064 65.3137C253.489 65.9127 252.813 66.4609 252.328 67.1398C252.222 67.2883 252.194 67.4574 252.059 67.5825C251.87 67.7563 251.602 67.9048 251.469 68.1306C251.418 68.2186 251.434 68.3037 251.355 68.3915C251.116 68.6575 250.725 68.7928 250.411 68.9396C249.934 69.1629 249.443 69.4346 248.949 69.6167C248.697 69.7093 248.405 69.7514 248.184 69.8688C248.086 69.9204 248.003 69.9953 247.92 70.0682C247.506 70.4298 248.602 69.205 248.899 68.7432C249.263 68.1778 249.711 67.6741 250.051 67.0929C250.325 66.6233 250.477 66.0976 250.769 65.6361C250.964 65.3267 251.137 65.0815 251.431 64.8681C251.798 64.6029 252.208 64.4386 252.61 64.2379C253.062 64.0119 253.427 63.7363 253.765 63.3556C254.056 63.0267 254.243 62.6557 254.503 62.3121C254.694 62.0596 254.937 61.825 255.107 61.5617C255.178 61.4518 255.267 61.2264 255.383 61.1513C255.49 61.0813 255.592 61.3019 255.623 61.3565C255.881 61.8116 256.198 62.1248 256.593 62.4674C256.9 62.7332 257.186 63.0777 257.569 63.2325C257.907 63.3686 258.206 63.5465 258.525 63.7191C258.948 63.9478 259.42 64.1132 259.821 64.3815C260.045 64.532 260.239 64.7329 260.454 64.8974C260.931 65.2628 261.397 65.6359 261.849 66.0318C262.943 66.9892 263.791 68.1341 264.645 69.3002C265.1 69.9207 265.384 70.5131 265.384 71.2876C265.384 71.7705 265.445 72.2957 265.355 72.7708C265.28 73.1654 265.143 73.5328 265.094 73.9345C265.023 74.5173 264.91 74.9713 264.593 75.4734C264.114 76.2313 263.226 76.8826 262.453 77.2908C261.878 77.5947 261.171 77.7762 260.635 78.1526C260.394 78.3221 259.536 78.6257 259.551 78.9968C259.557 79.1492 259.868 79.0953 259.958 79.0847C260.711 78.9961 261.465 78.6032 262.122 78.261C262.634 77.9944 261.024 78.6359 260.454 78.7271C260.077 78.7873 259.673 78.8534 259.296 78.9381C258.698 79.0727 257.549 79.5435 256.942 79.1199C256.568 78.8589 256.318 78.4359 256.045 78.0822C255.65 77.5686 255.192 77.3888 254.615 77.1442C254.23 76.9813 253.805 76.8235 253.492 76.5433C252.911 76.0236 252.254 75.5567 251.616 75.1099C251.329 74.9087 251.168 74.7131 250.939 74.468C250.523 74.0229 250.071 73.6127 249.632 73.1958C249.189 72.7759 248.849 72.2895 248.541 71.7683C248.348 71.4407 248.022 71.2139 247.785 70.9241C247.687 70.804 247.695 70.7326 247.55 70.6603C247.282 70.5261 248.15 70.6486 248.45 70.6486C250.02 70.6486 251.592 70.6665 253.149 70.4375C253.733 70.3516 254.318 70.2248 254.908 70.1854C255.305 70.1589 255.619 70.5099 255.902 70.7394C256.657 71.3533 257.391 71.9931 257.933 72.8118C258.146 73.1346 258.284 73.5455 258.592 73.7967C258.767 73.9392 258.973 74.0617 258.504 74.0019C257.811 73.9134 257.124 73.6963 256.456 73.4977C255.989 73.3591 255.616 73.1859 255.265 72.8411C254.433 72.0212 254.448 70.6608 255.078 69.7047C255.688 68.7793 256.796 68.24 257.801 67.8639C258.336 67.6636 258.805 67.6128 259.357 67.7876C259.931 67.969 260.636 68.2661 261.04 68.7344C261.394 69.1458 261.604 69.7724 261.726 70.2909C261.872 70.9101 261.91 71.7455 261.128 71.7976C259.806 71.8858 258.552 71.3951 257.27 71.1527C255.128 70.7476 253.024 70.5958 250.851 70.5958C249.716 70.5958 248.58 70.5958 247.445 70.5958" stroke="#2D516C" stroke-width="5" stroke-linecap="round"/>
<path d="M267.041 67.4004L244.858 46.6036C243.355 45.1949 241.24 44.6456 239.242 45.1451C238.329 45.3734 237.481 45.811 236.767 46.4234L234.667 48.2231C234.113 48.6979 233.613 49.2319 233.175 49.8156L231.102 52.5799C230.631 53.2077 230.291 53.9234 230.1 54.6848C229.571 56.8011 230.255 59.0365 231.879 60.4941L254.58 80.8788C256.329 82.4492 258.743 83.0487 261.023 82.4786C261.652 82.3215 262.256 82.0789 262.818 81.7576L263.805 81.1935C265.239 80.374 266.448 79.2119 267.324 77.8111L268.212 76.39C268.641 75.7026 268.951 74.9469 269.127 74.1556C269.674 71.6935 268.881 69.1254 267.041 67.4004Z" stroke="#2D516C" stroke-width="5"/>
<path d="M125.531 98.4287V145.833H81.2026C77.3366 145.833 74.2026 148.967 74.2026 152.833V189.69C74.2026 193.556 77.3366 196.69 81.2026 196.69H125.531V242.912C125.531 246.778 128.665 249.912 132.531 249.912H168.089C171.955 249.912 175.089 246.778 175.089 242.912V196.69H217.647C221.513 196.69 224.647 193.556 224.647 189.69V152.833C224.647 148.967 221.513 145.833 217.647 145.833H175.089V98.4287C175.089 94.5627 171.955 91.4287 168.089 91.4287H132.531C128.665 91.4287 125.531 94.5627 125.531 98.4287Z" fill="#FFC859" stroke="#FFC859" stroke-width="7"/>
<path d="M9.14451 181.581H25.2225C38.0849 275.752 115.183 297.763 152.124 296.998C247.673 293.782 277.877 226.943 277.877 171.819C272.824 79.486 201.123 49.5116 165.905 46.066V21.3748H184.28C191.63 14.0249 187.342 6.06247 184.28 3H121.116C113.766 10.8093 118.054 18.5038 121.116 21.3748H137.768V46.066C105.612 49.2816 84.1751 63.1011 77.4759 69.6088C71.0447 91.1993 86.2805 92.0036 94.7024 89.7069C140.065 49.6811 253.76 75.9258 250.314 171.819C247.558 248.534 183.706 269.244 152.124 270.01C77.7056 267.713 54.8902 210.1 52.7847 181.581H68.2885C75.1791 180.203 74.6049 174.499 73.4564 171.819L44.1715 120.714C39.1184 115.661 34.4099 118.609 32.6873 120.714L3.40237 171.819C1.56488 178.71 6.46484 181.198 9.14451 181.581Z" fill="#2D516C" stroke="#2D516C" stroke-width="5"/>
<path d="M103.632 152.128L134.495 180.311C134.495 194.788 145.979 200.727 152.87 200.53C164.928 200.185 171.053 188.35 170.67 180.311L215.426 136.094C217.328 134.216 218.9 131.856 218.821 129.185C218.608 122.04 212.426 117.385 206.698 117.664C204.679 117.763 202.973 119.03 201.534 120.45L158.926 162.511C153.872 160.214 147.25 161.554 144.57 162.511L118.327 136.773C115.982 134.472 112.916 132.762 109.654 133.161C102.497 134.035 100.142 139.326 99.7647 144.014C99.5113 147.164 101.298 149.998 103.632 152.128Z" fill="#2D516C" stroke="#2D516C" stroke-width="7"/>
<circle cx="151.722" cy="181.581" r="8.61321" fill="#FFC859"/>
</svg>
