<svg width="749" height="753" viewBox="0 0 749 753" fill="none" xmlns="http://www.w3.org/2000/svg">
<g clip-path="url(#clip0_139_261)">
<path d="M773.902 575.675H0V576.051H773.902V575.675Z" fill="#EBEBEB"/>
<path d="M696.357 599.897H645.094V600.274H696.357V599.897Z" fill="#EBEBEB"/>
<path d="M512.664 603.992H499.213V604.369H512.664V603.992Z" fill="#EBEBEB"/>
<path d="M643.546 585.927H569.762V586.303H643.546V585.927Z" fill="#EBEBEB"/>
<path d="M117.85 588.456H81.1978V588.833H117.85V588.456Z" fill="#EBEBEB"/>
<path d="M171.636 588.456H131.625V588.833H171.636V588.456Z" fill="#EBEBEB"/>
<path d="M303.54 594.809H203.49V595.185H303.54V594.809Z" fill="#EBEBEB"/>
<path d="M366.83 508.533H67.9641C65.6228 508.529 63.3788 507.622 61.7247 506.01C60.0706 504.398 59.1416 502.214 59.1416 499.937V91.3192C59.162 89.0551 60.1 86.8902 61.7519 85.2948C63.4038 83.6994 65.6361 82.8023 67.9641 82.7985H366.83C369.174 82.7985 371.422 83.7041 373.079 85.3162C374.736 86.9282 375.668 89.1146 375.668 91.3944V499.937C375.668 502.217 374.736 504.403 373.079 506.015C371.422 507.627 369.174 508.533 366.83 508.533ZM67.9641 83.0995C65.7254 83.1035 63.5798 83.9713 61.9983 85.5123C60.4168 87.0534 59.5285 89.1418 59.5286 91.3192V499.937C59.5285 502.114 60.4168 504.203 61.9983 505.744C63.5798 507.285 65.7254 508.153 67.9641 508.157H366.83C369.07 508.153 371.217 507.285 372.801 505.745C374.385 504.204 375.277 502.116 375.281 499.937V91.3192C375.277 89.1404 374.385 87.052 372.801 85.5114C371.217 83.9708 369.07 83.1035 366.83 83.0995H67.9641Z" fill="#EBEBEB"/>
<path d="M701.635 508.533H402.754C400.411 508.529 398.166 507.622 396.509 506.011C394.853 504.4 393.92 502.216 393.916 499.937V91.3192C393.94 89.0537 394.882 86.8888 396.536 85.2938C398.191 83.6989 400.425 82.8023 402.754 82.7985H701.635C703.96 82.8063 706.189 83.7051 707.837 85.3001C709.486 86.895 710.422 89.0577 710.442 91.3192V499.937C710.442 502.212 709.515 504.393 707.864 506.005C706.214 507.616 703.974 508.525 701.635 508.533ZM402.754 83.0995C400.514 83.1035 398.367 83.9708 396.783 85.5114C395.199 87.052 394.307 89.1404 394.303 91.3192V499.937C394.307 502.116 395.199 504.204 396.783 505.745C398.367 507.285 400.514 508.153 402.754 508.157H701.635C703.875 508.153 706.022 507.285 707.606 505.745C709.19 504.204 710.082 502.116 710.086 499.937V91.3192C710.082 89.1404 709.19 87.052 707.606 85.5114C706.022 83.9708 703.875 83.1035 701.635 83.0995H402.754Z" fill="#EBEBEB"/>
<path d="M683.216 121.94H438.709V575.675H683.216V121.94Z" fill="#EBEBEB"/>
<path d="M665.03 136.738H456.896V575.675H665.03V136.738Z" fill="#F5F5F5"/>
<path d="M590.24 173.139H531.717V188.871H590.24V173.139Z" fill="white"/>
<path d="M616.599 329.417H648.344C649.658 329.417 650.918 329.925 651.847 330.828C652.776 331.732 653.297 332.957 653.297 334.235C653.297 335.512 652.776 336.738 651.847 337.641C650.918 338.545 649.658 339.052 648.344 339.052H616.599C615.285 339.052 614.026 338.545 613.097 337.641C612.168 336.738 611.646 335.512 611.646 334.235C611.646 332.957 612.168 331.732 613.097 330.828C614.026 329.925 615.285 329.417 616.599 329.417Z" fill="white"/>
<path d="M271.547 170.219H108.935V297.683H271.547V170.219Z" fill="#EBEBEB"/>
<path d="M262.802 289.192V178.709H117.649V289.192H262.802Z" fill="#FAFAFA"/>
<path d="M245.884 235.404V230.12H134.582V235.404H245.884Z" fill="#E0E0E0"/>
<path d="M245.884 247.432V242.148H134.582V247.432H245.884Z" fill="#E0E0E0"/>
<path d="M245.884 259.445V254.161H134.582V259.445H245.884Z" fill="#E0E0E0"/>
<path d="M217.977 271.474V266.19H162.488V271.474H217.977Z" fill="#E0E0E0"/>
<path d="M134.659 178.709C134.659 180.879 134.218 183.027 133.361 185.03C132.504 187.034 131.248 188.852 129.666 190.382C128.083 191.911 126.205 193.121 124.14 193.941C122.075 194.762 119.864 195.177 117.633 195.163C114.555 195.171 111.535 194.353 108.903 192.8V170.219H132.12C133.747 172.77 134.625 175.707 134.659 178.709Z" fill="#EBEBEB"/>
<path d="M271.547 170.219V192.8C268.311 194.693 264.517 195.479 260.769 195.032C257.021 194.585 253.534 192.932 250.864 190.335C248.194 187.738 246.494 184.347 246.035 180.701C245.576 177.056 246.383 173.366 248.33 170.219H271.547Z" fill="#EBEBEB"/>
<path d="M134.659 289.208C134.664 292.194 133.829 295.125 132.244 297.683H109.027V275.102C111.595 273.606 114.525 272.799 117.518 272.764C120.511 272.728 123.46 273.464 126.065 274.898C128.67 276.331 130.838 278.411 132.347 280.925C133.857 283.438 134.655 286.296 134.659 289.208Z" fill="#EBEBEB"/>
<path d="M271.547 275.087V297.668H248.33C246.732 295.114 245.892 292.181 245.899 289.192C245.903 286.277 246.701 283.415 248.212 280.898C249.723 278.381 251.894 276.298 254.502 274.863C257.111 273.427 260.064 272.69 263.061 272.727C266.058 272.764 268.991 273.573 271.562 275.072L271.547 275.087Z" fill="#EBEBEB"/>
<path d="M204.463 207.874C205.738 200.234 200.403 193.034 192.548 191.794C184.692 190.554 177.29 195.742 176.015 203.383C174.74 211.023 180.074 218.223 187.93 219.463C195.786 220.703 203.188 215.515 204.463 207.874Z" fill="#E0E0E0"/>
<path d="M402.955 394.648H81.1978V405.908H402.955V394.648Z" fill="#EBEBEB"/>
<path d="M400.17 405.908H295.631V575.675H400.17V405.908Z" fill="#F5F5F5"/>
<path d="M189.714 405.908H85.1758V575.675H189.714V405.908Z" fill="#F5F5F5"/>
<path d="M88.7512 405.908H85.1758V575.675H88.7512V405.908Z" fill="#EBEBEB"/>
<path d="M299.206 405.908H295.631V575.675H299.206V405.908Z" fill="#EBEBEB"/>
<path d="M140.076 367.505H120.853L122.4 394.647H138.528L140.076 367.505Z" fill="#F0F0F0"/>
<path d="M306.976 382.875H206.539V394.648H306.976V382.875Z" fill="#F0F0F0"/>
<path d="M306.991 384.26H260.681V393.278H306.991V384.26Z" fill="#FAFAFA"/>
<path d="M386.951 643.66C552.694 643.66 687.055 636.031 687.055 626.619C687.055 617.207 552.694 609.577 386.951 609.577C221.208 609.577 86.8472 617.207 86.8472 626.619C86.8472 636.031 221.208 643.66 386.951 643.66Z" fill="#F5F5F5"/>
<path d="M527.352 521.209C554.433 521.209 576.387 499.856 576.387 473.517C576.387 447.177 554.433 425.825 527.352 425.825C500.271 425.825 478.318 447.177 478.318 473.517C478.318 499.856 500.271 521.209 527.352 521.209Z" fill="white"/>
<path d="M527.352 521.796C517.534 521.799 507.936 518.97 499.771 513.667C491.606 508.364 485.241 500.824 481.482 492.003C477.722 483.181 476.737 473.474 478.651 464.107C480.564 454.741 485.291 446.137 492.232 439.384C499.173 432.63 508.018 428.031 517.647 426.167C527.277 424.303 537.258 425.258 546.329 428.911C555.4 432.565 563.153 438.753 568.608 446.693C574.063 454.633 576.975 463.968 576.975 473.517C576.963 486.315 571.731 498.586 562.428 507.637C553.125 516.688 540.511 521.78 527.352 521.796ZM527.352 426.427C517.773 426.427 508.409 429.19 500.444 434.367C492.479 439.543 486.272 446.901 482.607 455.509C478.941 464.117 477.983 473.589 479.853 482.727C481.723 491.865 486.337 500.258 493.112 506.845C499.887 513.432 508.518 517.918 517.913 519.733C527.309 521.549 537.047 520.614 545.897 517.047C554.746 513.479 562.309 507.439 567.629 499.691C572.948 491.943 575.786 482.834 575.783 473.517C575.771 461.029 570.664 449.056 561.584 440.227C552.503 431.398 540.192 426.435 527.352 426.427Z" fill="#5BA3D9"/>
<path d="M535.246 446.479H519.458V500.554H535.246V446.479Z" fill="#5BA3D9"/>
<path d="M555.151 481.21V465.854H499.554V481.21H555.151Z" fill="#5BA3D9"/>
<path d="M195.194 113.012L194.141 111.913C201.306 105.326 210.398 101.065 220.16 99.7194L220.376 101.225C210.929 102.521 202.129 106.64 195.194 113.012Z" fill="#5BA3D9"/>
<path d="M183.74 129.467L182.3 128.925C183.863 125.09 185.945 121.475 188.492 118.176L189.73 119.079C187.274 122.272 185.26 125.764 183.74 129.467Z" fill="#5BA3D9"/>
<path d="M226.923 187.14C250.38 187.14 269.395 168.645 269.395 145.831C269.395 123.016 250.38 104.522 226.923 104.522C203.467 104.522 184.452 123.016 184.452 145.831C184.452 168.645 203.467 187.14 226.923 187.14Z" fill="#5BA3D9"/>
<path d="M252.292 127.224C250.656 125.572 248.699 124.254 246.533 123.347C244.367 122.44 242.038 121.962 239.68 121.941C237.322 121.92 234.984 122.356 232.802 123.225C230.619 124.093 228.637 125.376 226.97 126.998C225.305 125.376 223.324 124.094 221.143 123.226C218.962 122.357 216.625 121.921 214.268 121.942C211.912 121.963 209.583 122.441 207.419 123.348C205.255 124.255 203.298 125.572 201.664 127.224C198.461 130.593 196.735 135.045 196.853 139.633C196.972 144.221 198.925 148.583 202.298 151.792L222.42 171.363C223.023 171.95 223.74 172.416 224.529 172.733C225.317 173.051 226.163 173.215 227.017 173.215C227.87 173.215 228.716 173.051 229.504 172.733C230.293 172.416 231.01 171.95 231.614 171.363L251.735 151.792C255.097 148.573 257.037 144.206 257.141 139.618C257.245 135.03 255.505 130.584 252.292 127.224Z" fill="white"/>
<path d="M226.923 163.881C226.611 163.87 226.31 163.768 226.059 163.588C225.807 163.408 225.618 163.159 225.515 162.872L216.553 137.385L212.807 148.044C212.701 148.34 212.502 148.596 212.238 148.777C211.975 148.958 211.66 149.054 211.337 149.052H196.339C195.928 149.052 195.535 148.894 195.244 148.611C194.954 148.329 194.791 147.946 194.791 147.547C194.791 147.148 194.954 146.765 195.244 146.482C195.535 146.2 195.928 146.041 196.339 146.041H210.269L215.129 132.237C215.234 131.941 215.432 131.684 215.694 131.503C215.956 131.321 216.27 131.224 216.592 131.224C216.914 131.224 217.228 131.321 217.49 131.503C217.752 131.684 217.949 131.941 218.055 132.237L227.171 158.175L236.025 137.897C236.136 137.639 236.32 137.416 236.556 137.253C236.791 137.091 237.068 136.996 237.356 136.979C237.645 136.963 237.934 137.026 238.189 137.162C238.443 137.297 238.653 137.5 238.795 137.746L243.469 146.026H257.57C257.98 146.026 258.374 146.185 258.664 146.467C258.955 146.75 259.118 147.132 259.118 147.532C259.118 147.931 258.955 148.314 258.664 148.596C258.374 148.879 257.98 149.037 257.57 149.037H242.572C242.295 149.039 242.022 148.969 241.783 148.834C241.543 148.699 241.345 148.504 241.21 148.269L237.541 141.886L228.347 162.962C228.229 163.234 228.031 163.467 227.777 163.63C227.524 163.793 227.227 163.88 226.923 163.881Z" fill="#5BA3D9"/>
<path d="M462.577 573.869H301.033C298.4 573.897 295.791 573.392 293.37 572.387C290.949 571.382 288.769 569.897 286.97 568.028C285.171 566.159 283.791 563.947 282.919 561.531C282.046 559.115 281.7 556.55 281.902 553.997L308.013 177.64C308.469 172.265 310.963 167.247 315.011 163.561C319.058 159.875 324.37 157.783 329.915 157.693H491.49C494.129 157.664 496.746 158.171 499.172 159.181C501.599 160.191 503.782 161.682 505.583 163.559C507.383 165.436 508.761 167.658 509.629 170.083C510.496 172.508 510.834 175.081 510.621 177.64L484.463 553.997C483.992 559.357 481.493 564.357 477.45 568.028C473.407 571.699 468.107 573.78 462.577 573.869Z" fill="#263238"/>
<path d="M498.393 310.961H494.322C493.585 310.97 492.854 310.828 492.176 310.547C491.499 310.265 490.889 309.848 490.386 309.324C489.884 308.799 489.499 308.179 489.257 307.501C489.015 306.824 488.922 306.105 488.982 305.391L493.982 233.446C494.098 231.942 494.791 230.535 495.923 229.503C497.055 228.471 498.544 227.891 500.095 227.876H504.166C504.903 227.868 505.634 228.009 506.312 228.291C506.989 228.573 507.599 228.989 508.102 229.513C508.605 230.038 508.989 230.658 509.231 231.336C509.473 232.013 509.566 232.732 509.506 233.446L504.507 305.391C504.39 306.895 503.698 308.303 502.565 309.334C501.433 310.366 499.944 310.946 498.393 310.961Z" fill="#263238"/>
<path d="M305.66 262.968H301.605C301.005 262.976 300.41 262.862 299.858 262.634C299.305 262.407 298.807 262.07 298.395 261.646C297.983 261.221 297.667 260.718 297.465 260.168C297.264 259.618 297.182 259.034 297.225 258.452L299.036 232.468C299.15 231.248 299.724 230.112 300.647 229.279C301.569 228.445 302.776 227.973 304.035 227.952H308.106C308.704 227.948 309.296 228.065 309.846 228.294C310.396 228.524 310.891 228.861 311.3 229.285C311.71 229.708 312.026 230.21 312.227 230.758C312.428 231.305 312.511 231.888 312.471 232.468L310.66 258.452C310.549 259.673 309.976 260.81 309.053 261.645C308.129 262.479 306.921 262.95 305.66 262.968Z" fill="#5BA3D9"/>
<path d="M302.441 309.365H298.37C297.771 309.371 297.178 309.256 296.627 309.027C296.076 308.799 295.58 308.462 295.17 308.037C294.76 307.613 294.445 307.11 294.244 306.562C294.044 306.013 293.962 305.43 294.005 304.849L295.816 278.865C295.93 277.645 296.504 276.51 297.427 275.676C298.35 274.842 299.556 274.37 300.816 274.349H304.917C305.515 274.346 306.108 274.462 306.657 274.691C307.207 274.921 307.702 275.258 308.112 275.682C308.521 276.106 308.837 276.607 309.038 277.155C309.239 277.703 309.323 278.285 309.282 278.865L307.471 304.849C307.36 306.075 306.783 307.217 305.853 308.052C304.923 308.887 303.706 309.355 302.441 309.365Z" fill="#5BA3D9"/>
<path d="M459.156 573.869H297.612C294.979 573.897 292.37 573.392 289.949 572.387C287.528 571.382 285.349 569.897 283.549 568.028C281.75 566.159 280.37 563.947 279.498 561.531C278.625 559.115 278.279 556.55 278.481 553.997L304.608 177.64C305.08 172.263 307.591 167.25 311.654 163.574C315.716 159.898 321.039 157.824 326.587 157.754H488.069C490.703 157.725 493.314 158.23 495.736 159.236C498.158 160.243 500.338 161.728 502.137 163.599C503.937 165.47 505.316 167.684 506.188 170.102C507.059 172.519 507.404 175.086 507.2 177.64L481.057 553.997C480.586 559.36 478.085 564.361 474.039 568.033C469.993 571.704 464.689 573.784 459.156 573.869Z" fill="#5BA3D9"/>
<path opacity="0.3" d="M280.184 549.782L305.691 182.518H505.451L479.943 549.782H280.184Z" fill="white"/>
<path opacity="0.1" d="M359.044 549.782L430.336 182.518H475.083L403.791 549.782H359.044Z" fill="white"/>
<path opacity="0.1" d="M325.24 549.782L396.532 182.518H419.207L347.916 549.782H325.24Z" fill="white"/>
<path d="M387.168 166.982H426.126C426.451 166.976 426.774 167.038 427.073 167.161C427.373 167.285 427.642 167.468 427.864 167.7C428.085 167.931 428.255 168.205 428.361 168.504C428.467 168.803 428.507 169.121 428.479 169.436C428.425 170.099 428.119 170.719 427.622 171.176C427.124 171.632 426.469 171.892 425.785 171.905H386.827C386.501 171.908 386.178 171.845 385.879 171.72C385.58 171.594 385.31 171.409 385.089 171.177C384.867 170.944 384.698 170.669 384.592 170.369C384.487 170.07 384.446 169.752 384.475 169.436C384.528 168.774 384.834 168.156 385.333 167.702C385.831 167.248 386.485 166.991 387.168 166.982Z" fill="white"/>
<path d="M379.057 610.074L365.405 611.339L360.483 580.703L374.135 579.424L379.057 610.074Z" fill="#FFB573"/>
<path d="M363.842 604.85L378.144 600.53C378.391 600.446 378.661 600.459 378.898 600.566C379.134 600.673 379.319 600.865 379.413 601.102L384.057 612.136C384.172 612.432 384.223 612.748 384.207 613.064C384.19 613.38 384.107 613.689 383.961 613.972C383.816 614.255 383.612 614.505 383.362 614.708C383.112 614.91 382.821 615.06 382.509 615.147C377.339 616.653 372.417 616.999 366.179 619.664C358.889 622.674 355.84 626.709 347.993 626.709C342.374 626.709 341.105 621.696 343.489 621.003C354.323 617.812 352.899 615.192 360.762 606.958C361.58 606.003 362.642 605.276 363.842 604.85Z" fill="#263238"/>
<path opacity="0.2" d="M360.483 580.703L363.022 596.51L376.689 595.231L374.151 579.424L360.483 580.703Z" fill="black"/>
<path d="M370.358 193.598C352.45 191.55 334.635 192.92 316.758 196.293C313.779 196.855 311.062 198.325 308.999 200.491C306.937 202.656 305.638 205.404 305.289 208.336C303.354 224.986 301.141 262.305 309.777 317.976L382.958 311.954C383.097 301.853 375.714 255.832 381.812 208.08C382.062 206.394 381.962 204.677 381.518 203.03C381.074 201.382 380.295 199.838 379.227 198.488C378.16 197.138 376.825 196.01 375.302 195.17C373.778 194.33 372.098 193.796 370.358 193.598Z" fill="white"/>
<path d="M327.748 207.869L330.363 212.958C330.485 213.214 330.679 213.432 330.923 213.587C331.167 213.741 331.45 213.826 331.741 213.831L334.573 213.981C335.079 214.003 335.576 213.854 335.982 213.56L340.857 210.022L334.837 205.762L327.748 207.869Z" fill="#263238"/>
<path d="M334.666 212.521C333.634 212.056 332.465 211.965 331.37 212.265C329.063 220.169 326.54 242.855 326.277 252.912C333.273 272.738 335.564 274.74 335.564 274.74L339.109 250.879C339.109 250.879 335.131 226.476 334.666 212.521Z" fill="#263238"/>
<path d="M354.865 159.274C353.194 169.089 351.77 187.019 359.013 193.357C353.704 198.776 346.755 205.054 334.837 205.762C322.919 206.469 324.761 198.445 327.779 194.155C338.907 191.264 338.366 183.195 336.183 175.653L354.865 159.274Z" fill="#FFB573"/>
<path d="M362.047 192.499C361.203 192.145 360.327 191.868 359.431 191.671C359.212 191.614 358.979 191.63 358.77 191.714C358.56 191.798 358.385 191.947 358.27 192.138C357.125 194.034 353.627 202.51 334.836 205.762C337.932 207.538 342.034 213.048 343.798 215.697C349.432 212.852 364.09 204.347 362.697 193.342C362.668 193.16 362.594 192.988 362.481 192.841C362.367 192.694 362.218 192.576 362.047 192.499Z" fill="#F5F5F5"/>
<path d="M327.887 194.606C327.927 194.435 327.922 194.257 327.872 194.088C327.823 193.919 327.731 193.765 327.605 193.639C327.479 193.514 327.323 193.421 327.15 193.369C326.978 193.317 326.795 193.307 326.618 193.342C325.967 193.465 325.326 193.631 324.699 193.839C324.553 193.894 324.418 193.97 324.296 194.064C322.857 195.359 315.009 206.379 322.361 215.291C323.909 212.867 329.249 207.372 334.837 205.762C329.543 203.443 326.943 199.123 327.887 194.606Z" fill="#F5F5F5"/>
<path opacity="0.2" d="M347.25 165.958L336.199 175.653C336.732 177.404 337.104 179.198 337.313 181.012C341.585 180.305 347.327 175.593 347.637 171.227C347.846 169.463 347.715 167.676 347.25 165.958Z" fill="black"/>
<path d="M332.484 129.602C322.949 133.23 322.33 140.848 323.197 149.173C324.064 157.498 333.382 151.988 335.456 146.779C337.53 141.57 345.687 124.574 332.484 129.602Z" fill="#263238"/>
<path d="M362.898 146.207C360.251 159.319 359.369 167.102 351.661 173.139C340.037 182.172 324.296 174.374 322.903 160.855C321.649 148.676 326.184 129.241 340.068 125.447C343.096 124.58 346.304 124.496 349.375 125.204C352.446 125.912 355.275 127.388 357.58 129.484C359.886 131.581 361.589 134.226 362.522 137.159C363.454 140.092 363.584 143.21 362.898 146.207Z" fill="#FFB573"/>
<path d="M362.341 157.061C350.996 157.648 353.395 151.386 355.453 147.788C357.512 144.19 353.318 138.243 356.057 135.157C351.166 137.054 346.012 135.488 339.465 131.062C334.388 127.615 328.026 141.39 321.835 134.48C315.984 127.961 321.417 118.131 335.471 116.55C349.525 114.969 352.079 124.634 361.304 123.776C370.529 122.918 367.325 130.31 365.514 131.815C373.253 132.312 377.479 139.508 362.341 157.061Z" fill="#263238"/>
<path d="M363.734 132.733C365.509 131.786 366.992 130.395 368.028 128.704C369.065 127.013 369.618 125.083 369.631 123.114C372.696 128.338 372.371 134.269 363.734 132.733Z" fill="#263238"/>
<path d="M334.326 160.207C335.559 160.415 336.823 160.378 338.041 160.099C339.259 159.819 340.407 159.303 341.415 158.582C341.445 158.553 341.469 158.52 341.486 158.482C341.502 158.445 341.511 158.404 341.511 158.363C341.511 158.322 341.502 158.282 341.486 158.245C341.469 158.207 341.445 158.173 341.415 158.145C341.354 158.089 341.274 158.058 341.19 158.058C341.107 158.058 341.026 158.089 340.966 158.145C339.837 158.923 338.538 159.436 337.171 159.642C335.803 159.849 334.406 159.743 333.087 159.334C333.003 159.314 332.914 159.324 332.837 159.363C332.761 159.402 332.701 159.466 332.669 159.545C332.645 159.625 332.655 159.711 332.695 159.784C332.736 159.857 332.804 159.912 332.886 159.936C333.357 160.068 333.838 160.159 334.326 160.207Z" fill="#263238"/>
<path d="M365.638 161.081C363.518 163.737 360.411 165.478 356.985 165.928C352.481 166.5 350.98 162.42 352.868 158.612C354.586 155.179 359.06 150.753 363.208 151.943C367.356 153.132 368.238 157.769 365.638 161.081Z" fill="#FFB573"/>
<path d="M361.165 446.163C361.707 406.857 366.876 313.234 366.876 313.234L309.824 317.916C309.824 317.916 321.17 414.399 328.011 454.503C335.131 496.189 356.97 593.846 356.97 593.846L380.187 591.919C380.187 591.919 371.705 476.558 361.165 446.163Z" fill="#263238"/>
<path d="M355.577 594.463L383.113 592.19L382.029 583.548L353.333 585.415L355.577 594.463Z" fill="#5BA3D9"/>
<path d="M342.56 146.99C342.421 148.059 341.709 148.872 341.012 148.796C340.316 148.721 339.836 147.788 339.991 146.704C340.145 145.62 340.842 144.822 341.538 144.897C342.235 144.973 342.715 145.921 342.56 146.99Z" fill="#263238"/>
<path d="M329.93 146.026C329.791 147.11 329.079 147.908 328.382 147.833C327.686 147.758 327.206 146.824 327.361 145.755C327.515 144.687 328.212 143.874 328.908 143.949C329.605 144.024 330.085 144.897 329.93 146.026Z" fill="#263238"/>
<path d="M333.49 147.291C331.626 150.077 329.387 152.608 326.834 154.818C328.475 156.489 331.865 156.037 331.865 156.037L333.49 147.291Z" fill="#ED893E"/>
<path opacity="0.4" d="M321.943 146.297C321.711 148.013 323.491 149.444 325.952 149.745C328.413 150.046 330.688 148.736 330.905 147.02" fill="#5BA3D9"/>
<path opacity="0.4" d="M336.57 147.893C336.229 149.594 337.947 151.13 340.362 151.581C342.777 152.033 345.145 150.829 345.47 149.143" fill="#5BA3D9"/>
<path d="M341.322 152.048C341.044 152.063 340.764 152.063 340.486 152.048C339.296 151.91 338.179 151.421 337.282 150.648C336.891 150.323 336.586 149.911 336.392 149.448C336.198 148.984 336.121 148.482 336.168 147.983C335.382 147.651 334.545 147.447 333.691 147.381C332.832 147.173 331.934 147.173 331.075 147.381C330.859 149.218 328.506 150.482 325.875 150.166C324.685 150.04 323.565 149.556 322.671 148.781C322.282 148.455 321.978 148.043 321.784 147.579C321.59 147.116 321.512 146.615 321.556 146.117L322.299 146.207C322.268 146.592 322.332 146.979 322.485 147.335C322.639 147.691 322.878 148.006 323.182 148.254C323.961 148.922 324.935 149.337 325.968 149.444C328.197 149.73 330.178 148.721 330.379 147.216C330.487 146.373 332.283 146.433 333.769 146.613C335.255 146.794 337.019 147.201 336.864 148.029C336.832 148.414 336.895 148.801 337.048 149.157C337.202 149.513 337.441 149.829 337.746 150.076C338.536 150.735 339.506 151.154 340.537 151.282C341.569 151.411 342.616 151.243 343.551 150.799C343.911 150.635 344.226 150.39 344.469 150.083C344.711 149.777 344.874 149.418 344.944 149.037V148.676L364.044 151.07L363.951 151.792L345.563 149.489C345.429 149.908 345.209 150.296 344.917 150.63C344.624 150.964 344.265 151.236 343.86 151.431C343.078 151.834 342.207 152.045 341.322 152.048Z" fill="#263238"/>
<path d="M347.42 142.263C347.53 142.263 347.638 142.232 347.73 142.172C347.88 142.087 347.99 141.948 348.037 141.785C348.083 141.622 348.062 141.447 347.977 141.299C347.498 140.424 346.803 139.677 345.955 139.125C345.107 138.574 344.132 138.235 343.117 138.138C342.943 138.13 342.773 138.188 342.643 138.301C342.512 138.413 342.433 138.571 342.421 138.74C342.412 138.905 342.471 139.067 342.584 139.191C342.696 139.315 342.855 139.391 343.024 139.402C343.828 139.494 344.596 139.775 345.262 140.221C345.928 140.667 346.473 141.265 346.847 141.962C346.906 142.058 346.99 142.136 347.091 142.189C347.192 142.242 347.306 142.268 347.42 142.263Z" fill="#263238"/>
<path d="M325.844 140.562C325.951 140.572 326.059 140.557 326.159 140.517C326.258 140.478 326.347 140.416 326.416 140.336C326.917 139.698 327.564 139.184 328.306 138.834C329.048 138.483 329.864 138.307 330.688 138.319C330.774 138.327 330.86 138.319 330.942 138.294C331.024 138.27 331.101 138.23 331.167 138.177C331.233 138.124 331.288 138.058 331.328 137.984C331.368 137.911 331.393 137.83 331.4 137.747C331.411 137.665 331.405 137.583 331.383 137.504C331.361 137.425 331.323 137.351 331.271 137.287C331.219 137.222 331.154 137.169 331.081 137.129C331.008 137.089 330.927 137.063 330.843 137.054C329.803 137.028 328.772 137.238 327.831 137.67C326.89 138.101 326.066 138.741 325.426 139.538C325.316 139.666 325.262 139.831 325.276 139.998C325.291 140.164 325.372 140.318 325.503 140.426C325.604 140.497 325.721 140.543 325.844 140.562Z" fill="#263238"/>
<path d="M408.698 439.825C396.857 380.632 394.195 334.34 382.958 311.864L327.686 317.886C327.686 317.886 360.607 406.089 376.689 443.74C393.39 482.881 426.358 549.752 426.358 549.752H453.971C453.971 549.752 428.2 466.788 408.698 439.825Z" fill="#263238"/>
<path d="M233.502 215.743L227.527 212.069C226.557 211.462 225.401 211.2 224.255 211.329C223.109 211.458 222.045 211.97 221.243 212.777L217.188 216.932C216.751 217.38 216.414 217.911 216.196 218.492C215.979 219.072 215.886 219.689 215.924 220.306C215.961 220.923 216.129 221.525 216.415 222.076C216.702 222.628 217.102 223.116 217.59 223.511L220.485 225.919C223.002 227.994 225.939 229.533 229.106 230.436L237.851 232.95L243.593 226.928C245.342 220.65 233.502 215.743 233.502 215.743Z" fill="#FFB573"/>
<path d="M321.943 212.927C319.776 218.076 317.656 222.863 315.35 227.756C313.043 232.649 310.706 237.481 308.121 242.283C305.537 247.086 302.781 251.858 299.655 256.645C298.107 259.024 296.389 261.402 294.439 263.796C292.342 266.435 289.955 268.843 287.319 270.977C285.579 272.36 283.658 273.514 281.607 274.409C280.957 274.65 280.354 274.891 279.642 275.102L278.558 275.388C278.013 275.518 277.46 275.613 276.902 275.674C275.015 275.88 273.106 275.748 271.268 275.282C268.971 274.657 266.788 273.687 264.798 272.407C263.308 271.502 261.886 270.496 260.542 269.396C256.075 265.603 251.958 261.437 248.237 256.946C244.63 252.731 241.225 248.501 237.959 244.18C234.694 239.86 231.551 235.614 228.332 231.083L245.451 220.334C250.853 228.816 256.83 236.938 263.343 244.647C266.337 248.217 269.635 251.536 273.203 254.568C273.894 255.118 274.623 255.621 275.385 256.073C275.958 256.449 276.531 256.6 276.128 256.464C275.584 256.319 275.014 256.288 274.457 256.374C274.231 256.394 274.009 256.435 273.791 256.495H273.667C273.59 256.495 273.59 256.495 273.574 256.495C273.926 256.271 274.262 256.024 274.58 255.757C275.993 254.51 277.274 253.128 278.403 251.632C279.719 249.916 281.035 247.989 282.288 245.987C284.851 241.824 287.186 237.532 289.285 233.13C291.451 228.614 293.541 224.098 295.476 219.401C297.411 214.704 299.252 209.932 300.816 205.37L321.943 212.927Z" fill="#5BA3D9"/>
<g opacity="0.6">
<path d="M321.943 212.927C319.776 218.076 317.656 222.863 315.35 227.756C313.043 232.649 310.706 237.481 308.121 242.283C305.537 247.086 302.781 251.858 299.655 256.645C298.107 259.024 296.389 261.402 294.439 263.796C292.342 266.435 289.955 268.843 287.319 270.977C285.579 272.36 283.658 273.514 281.607 274.409C280.957 274.65 280.354 274.891 279.642 275.102L278.558 275.388C278.013 275.518 277.46 275.613 276.902 275.674C275.015 275.88 273.106 275.748 271.268 275.282C268.971 274.657 266.788 273.687 264.798 272.407C263.308 271.502 261.886 270.496 260.542 269.396C256.075 265.603 251.958 261.437 248.237 256.946C244.63 252.731 241.225 248.501 237.959 244.18C234.694 239.86 231.551 235.614 228.332 231.083L245.451 220.334C250.853 228.816 256.83 236.938 263.343 244.647C266.337 248.217 269.635 251.536 273.203 254.568C273.894 255.118 274.623 255.621 275.385 256.073C275.958 256.449 276.531 256.6 276.128 256.464C275.584 256.319 275.014 256.288 274.457 256.374C274.231 256.394 274.009 256.435 273.791 256.495H273.667C273.59 256.495 273.59 256.495 273.574 256.495C273.926 256.271 274.262 256.024 274.58 255.757C275.993 254.51 277.274 253.128 278.403 251.632C279.719 249.916 281.035 247.989 282.288 245.987C284.851 241.824 287.186 237.532 289.285 233.13C291.451 228.614 293.541 224.098 295.476 219.401C297.411 214.704 299.252 209.932 300.816 205.37L321.943 212.927Z" fill="white"/>
</g>
<path d="M362.465 189.819C356.661 200.357 335.998 240.507 333.49 265.286C324.343 242.705 326.339 192.755 326.339 192.755C319.82 193.373 313.425 194.894 307.348 197.271C305.389 198.054 303.692 199.348 302.443 201.012C301.195 202.675 300.444 204.642 300.274 206.695C298.493 232.541 299.333 258.494 302.782 284.179C309.205 332.805 315.164 408.422 315.164 408.422C315.164 408.422 366.319 406.345 405.788 398.245C400.974 361.077 384.506 298.782 384.351 282.102C384.165 260.634 384.676 218.663 385.373 201.14C385.489 198.666 384.692 196.233 383.125 194.281C381.558 192.329 379.325 190.986 376.829 190.497C372.094 189.643 367.262 189.415 362.465 189.819Z" fill="#5BA3D9"/>
<path opacity="0.7" d="M362.465 189.819C356.661 200.357 335.998 240.507 333.49 265.286C324.343 242.705 326.339 192.755 326.339 192.755C319.82 193.373 313.425 194.894 307.348 197.271C305.389 198.054 303.692 199.348 302.443 201.012C301.195 202.675 300.444 204.642 300.274 206.695C298.493 232.541 299.333 258.494 302.782 284.179C309.205 332.805 315.164 408.422 315.164 408.422C315.164 408.422 366.319 406.345 405.788 398.245C400.974 361.077 384.506 298.782 384.351 282.102C384.165 260.634 384.676 218.648 385.373 201.125C385.519 198.726 384.79 196.354 383.315 194.426C381.84 192.499 379.713 191.139 377.308 190.587C372.422 189.655 367.425 189.397 362.465 189.819Z" fill="white"/>
<path d="M350.407 400.353C341.523 352.676 334.48 282.719 333.908 274.304H334.697C335.27 282.719 342.328 352.586 351.197 400.263L350.407 400.353Z" fill="white"/>
<path d="M345.981 315.537H298.804C297.851 315.496 296.938 315.155 296.201 314.566C295.465 313.977 294.944 313.172 294.718 312.271L278.945 240.959C278.83 240.569 278.811 240.159 278.891 239.761C278.97 239.363 279.145 238.99 279.402 238.671C279.659 238.352 279.99 238.097 280.368 237.927C280.746 237.756 281.16 237.676 281.577 237.692H328.738C329.694 237.73 330.61 238.07 331.35 238.659C332.09 239.248 332.613 240.055 332.84 240.959L348.612 312.271C348.728 312.66 348.746 313.07 348.667 313.468C348.588 313.866 348.412 314.239 348.155 314.558C347.898 314.877 347.567 315.132 347.189 315.303C346.811 315.473 346.397 315.553 345.981 315.537Z" fill="white"/>
<path d="M344.51 316.14H296.528C295.558 316.096 294.629 315.748 293.879 315.148C293.128 314.549 292.597 313.73 292.365 312.813L276.314 240.296C276.199 239.899 276.182 239.481 276.265 239.076C276.348 238.671 276.528 238.291 276.791 237.966C277.053 237.642 277.391 237.383 277.776 237.209C278.161 237.036 278.583 236.954 279.007 236.969H326.989C327.959 237.013 328.889 237.361 329.639 237.96C330.389 238.56 330.92 239.379 331.153 240.296L347.188 312.813C347.306 313.209 347.326 313.627 347.245 314.032C347.164 314.437 346.986 314.818 346.725 315.143C346.463 315.467 346.126 315.727 345.741 315.901C345.356 316.074 344.934 316.156 344.51 316.14Z" fill="#5BA3D9"/>
<path d="M350.005 275.222L338.072 274.785C336.637 274.737 335.208 274.984 333.877 275.508L327.686 277.917C327.105 278.14 326.577 278.476 326.132 278.903C325.688 279.33 325.337 279.84 325.1 280.402C324.863 280.965 324.745 281.568 324.753 282.175C324.761 282.783 324.895 283.382 325.147 283.938L327.624 289.147C328.124 290.157 328.966 290.969 330.009 291.446C331.052 291.924 332.232 292.037 333.351 291.767L340.177 290.111C340.177 290.111 352.992 289.117 353.457 282.584L350.005 275.222Z" fill="#FFB573"/>
<path d="M382.958 196.277C385.914 200.794 388.623 204.919 391.285 209.345C393.947 213.771 396.563 218.151 399.024 222.728C401.485 227.304 403.822 232.031 405.943 237.09C407.044 239.738 407.984 242.448 408.76 245.204C409.758 248.563 410.217 252.051 410.122 255.546V256.133C410.127 256.234 410.127 256.334 410.122 256.434C410.122 256.976 409.967 257.518 409.859 258.06C409.75 258.602 409.611 259.024 409.456 259.566C409.301 260.108 409.131 260.394 408.961 260.815C408.369 262.118 407.61 263.342 406.701 264.458C405.437 265.995 403.998 267.389 402.414 268.613C399.979 270.478 397.391 272.145 394.675 273.596C389.896 276.137 384.977 278.419 379.94 280.431C375.064 282.448 370.204 284.285 365.313 286.016C360.422 287.747 355.608 289.418 350.516 291.074L344.619 272.106C349.262 270.871 353.998 269.351 358.626 267.815C363.254 266.28 367.913 264.564 372.309 262.772C376.623 261.039 380.83 259.063 384.908 256.856C386.629 255.928 388.27 254.866 389.815 253.679C390.22 253.38 390.584 253.031 390.898 252.641C390.765 252.787 390.66 252.955 390.588 253.137C390.588 253.273 390.511 253.363 390.434 253.529C390.373 253.706 390.326 253.887 390.294 254.071C390.229 254.302 390.188 254.539 390.171 254.778C390.171 254.869 390.171 254.884 390.171 254.854V254.748C390.063 253.32 389.777 251.909 389.319 250.548C388.7 248.577 387.966 246.642 387.121 244.752C385.229 240.585 383.09 236.529 380.713 232.603C378.299 228.569 375.73 224.534 372.974 220.56C370.219 216.586 367.402 212.626 364.57 209.013L382.958 196.277Z" fill="#5BA3D9"/>
<g opacity="0.7">
<path d="M382.958 196.277C385.914 200.794 388.623 204.919 391.285 209.345C393.947 213.771 396.563 218.151 399.024 222.728C401.485 227.304 403.822 232.031 405.943 237.09C407.044 239.738 407.984 242.448 408.76 245.204C409.758 248.563 410.217 252.051 410.122 255.546V256.133C410.127 256.234 410.127 256.334 410.122 256.434C410.122 256.976 409.967 257.518 409.859 258.06C409.75 258.602 409.611 259.024 409.456 259.566C409.301 260.108 409.131 260.394 408.961 260.815C408.369 262.118 407.61 263.342 406.701 264.458C405.437 265.995 403.998 267.389 402.414 268.613C399.979 270.478 397.391 272.145 394.675 273.596C389.896 276.137 384.977 278.419 379.94 280.431C375.064 282.448 370.204 284.285 365.313 286.016C360.422 287.747 355.608 289.418 350.516 291.074L344.619 272.106C349.262 270.871 353.998 269.351 358.626 267.815C363.254 266.28 367.913 264.564 372.309 262.772C376.623 261.039 380.83 259.063 384.908 256.856C386.629 255.928 388.27 254.866 389.815 253.679C390.22 253.38 390.584 253.031 390.898 252.641C390.765 252.787 390.66 252.955 390.588 253.137C390.588 253.273 390.511 253.363 390.434 253.529C390.373 253.706 390.326 253.887 390.294 254.071C390.229 254.302 390.188 254.539 390.171 254.778C390.171 254.869 390.171 254.884 390.171 254.854V254.748C390.063 253.32 389.777 251.909 389.319 250.548C388.7 248.577 387.966 246.642 387.121 244.752C385.229 240.585 383.09 236.529 380.713 232.603C378.299 228.569 375.73 224.534 372.974 220.56C370.219 216.586 367.402 212.626 364.57 209.013L382.958 196.277Z" fill="white"/>
</g>
<path d="M367.294 248.516C367.191 248.515 367.089 248.488 367 248.438C366.911 248.387 366.836 248.316 366.783 248.23C366.738 248.164 366.706 248.09 366.691 248.012C366.676 247.935 366.677 247.855 366.694 247.777C366.712 247.7 366.745 247.627 366.792 247.562C366.839 247.498 366.899 247.443 366.969 247.402L369.383 245.896C371.637 244.514 373.406 242.498 374.456 240.117C375.507 237.735 375.789 235.099 375.265 232.558L370.405 208.622C370.049 206.832 369.083 205.212 367.663 204.022C366.243 202.833 364.452 202.144 362.579 202.067C360.706 201.991 358.862 202.531 357.344 203.6C355.826 204.669 354.724 206.205 354.215 207.96L347.327 231.429C346.575 233.91 346.616 236.555 347.446 239.012C348.275 241.47 349.853 243.624 351.971 245.189L354.261 246.875C354.39 246.973 354.474 247.117 354.494 247.275C354.515 247.433 354.47 247.592 354.37 247.718C354.321 247.78 354.26 247.831 354.191 247.87C354.122 247.909 354.046 247.934 353.967 247.943C353.887 247.953 353.807 247.948 353.73 247.927C353.653 247.906 353.581 247.871 353.518 247.823L351.351 246.152C349.024 244.448 347.284 242.095 346.364 239.406C345.443 236.717 345.385 233.82 346.197 231.098L353.1 207.628C353.693 205.624 354.961 203.872 356.7 202.653C358.439 201.433 360.549 200.818 362.691 200.904C364.834 200.991 366.884 201.776 368.513 203.131C370.142 204.487 371.255 206.336 371.674 208.381L376.534 232.332C377.108 235.108 376.801 237.988 375.654 240.591C374.507 243.193 372.574 245.395 370.111 246.905L367.681 248.41C367.627 248.452 367.565 248.484 367.498 248.502C367.432 248.52 367.362 248.525 367.294 248.516Z" fill="#263238"/>
<path d="M371.009 209.119L353.627 208.411C353.546 208.407 353.466 208.388 353.392 208.354C353.319 208.32 353.253 208.273 353.198 208.214C353.143 208.155 353.101 208.086 353.074 208.012C353.047 207.937 353.035 207.858 353.039 207.779C353.054 207.622 353.13 207.476 353.25 207.37C353.37 207.264 353.527 207.206 353.689 207.207L371.055 207.914C371.137 207.918 371.216 207.938 371.29 207.972C371.364 208.006 371.43 208.053 371.484 208.112C371.539 208.171 371.581 208.239 371.608 208.314C371.636 208.389 371.648 208.468 371.644 208.547C371.642 208.625 371.623 208.702 371.59 208.774C371.557 208.845 371.51 208.91 371.45 208.963C371.391 209.016 371.322 209.058 371.246 209.084C371.17 209.111 371.089 209.123 371.009 209.119Z" fill="#263238"/>
<path d="M362.558 202.103C362.397 202.1 362.244 202.037 362.13 201.928C362.015 201.819 361.946 201.672 361.939 201.516C361.939 198.506 360.979 193.282 358.085 192.138C358.005 192.111 357.931 192.07 357.868 192.015C357.805 191.96 357.754 191.893 357.719 191.818C357.684 191.744 357.665 191.663 357.663 191.58C357.661 191.498 357.676 191.417 357.708 191.34C357.74 191.264 357.787 191.195 357.847 191.138C357.908 191.08 357.979 191.035 358.058 191.005C358.137 190.976 358.221 190.962 358.305 190.965C358.39 190.968 358.473 190.988 358.549 191.024C362.836 192.74 363.192 200.598 363.192 201.562C363.193 201.72 363.13 201.873 363.018 201.988C362.905 202.103 362.752 202.171 362.589 202.179L362.558 202.103Z" fill="#263238"/>
<path d="M309.391 222.562H309.267C309.107 222.53 308.967 222.437 308.877 222.304C308.787 222.172 308.755 222.01 308.787 221.855C310.83 211.964 319.281 196.353 326.726 191.746C326.794 191.705 326.87 191.678 326.949 191.665C327.028 191.653 327.108 191.656 327.186 191.674C327.264 191.692 327.337 191.725 327.402 191.771C327.466 191.817 327.521 191.875 327.562 191.942C327.607 192.006 327.638 192.079 327.653 192.156C327.668 192.232 327.667 192.311 327.649 192.387C327.632 192.463 327.599 192.535 327.552 192.599C327.505 192.662 327.445 192.715 327.376 192.755C320.179 197.181 311.975 212.325 309.994 222.065C309.969 222.204 309.895 222.329 309.785 222.42C309.674 222.51 309.535 222.561 309.391 222.562Z" fill="#263238"/>
<path d="M314.467 224.113C313.508 226.506 311.372 227.952 309.824 227.334C308.276 226.717 307.672 224.324 308.632 221.87C309.592 219.416 311.728 218.031 313.275 218.663C314.823 219.295 315.442 221.719 314.467 224.113Z" fill="white"/>
<path d="M355.329 247.432C355.329 248.546 354.617 249.434 353.859 249.404C353.1 249.374 352.512 248.44 352.559 247.311C352.605 246.182 353.271 245.294 354.029 245.339C354.788 245.384 355.376 246.303 355.329 247.432Z" fill="white"/>
<path d="M368.671 247.974C368.671 249.088 367.975 249.976 367.201 249.946C366.427 249.916 365.87 248.982 365.916 247.853C365.963 246.724 366.613 245.851 367.464 245.881C368.315 245.911 368.718 246.89 368.671 247.974Z" fill="white"/>
<path d="M631.148 227.094L629.6 227.003C629.858 223.798 629.428 220.576 628.337 217.541C627.246 214.506 625.519 211.725 623.265 209.374C621.01 207.023 618.278 205.153 615.241 203.883C612.205 202.614 608.93 201.972 605.625 201.998V200.493C609.142 200.464 612.627 201.146 615.859 202.496C619.091 203.846 621.999 205.835 624.398 208.336C626.798 210.837 628.637 213.796 629.799 217.025C630.961 220.254 631.421 223.683 631.148 227.094Z" fill="#5BA3D9"/>
<path d="M631.964 233.405L631.067 245.87L632.615 245.976L633.512 233.511L631.964 233.405Z" fill="#5BA3D9"/>
<path d="M605.625 205.762H498.826C492.994 205.855 487.406 208.055 483.149 211.934C478.892 215.812 476.27 221.093 475.795 226.747L474.82 240.733C474.598 243.424 474.955 246.13 475.869 248.679C476.782 251.229 478.231 253.565 480.124 255.539C482.017 257.514 484.313 259.083 486.864 260.147C489.415 261.21 492.166 261.746 494.941 261.718H601.74L622.449 274.138L625.731 226.747C625.954 224.057 625.599 221.351 624.688 218.802C623.776 216.252 622.328 213.916 620.437 211.941C618.545 209.967 616.25 208.397 613.7 207.333C611.15 206.269 608.399 205.734 605.625 205.762Z" fill="#5BA3D9"/>
<path d="M600.207 225.799H501.287V229.291H600.207V225.799Z" fill="white"/>
<path d="M599.341 238.189H525.897V241.681H599.341V238.189Z" fill="white"/>
<path d="M444.963 280.581H554.114C556.952 280.551 559.765 281.097 562.373 282.184C564.982 283.271 567.329 284.875 569.265 286.894C571.201 288.912 572.682 291.301 573.615 293.908C574.548 296.515 574.912 299.282 574.684 302.034L573.694 316.335C573.203 322.114 570.522 327.509 566.172 331.473C561.822 335.437 556.112 337.688 550.152 337.788H440.985L418.046 350.508L421.421 302.034C421.908 296.254 424.587 290.857 428.938 286.892C433.29 282.927 439.001 280.678 444.963 280.581Z" fill="white"/>
<path opacity="0.15" d="M444.963 280.581H554.114C556.952 280.551 559.765 281.097 562.373 282.184C564.982 283.271 567.329 284.875 569.265 286.894C571.201 288.912 572.682 291.301 573.615 293.908C574.548 296.515 574.912 299.282 574.684 302.034L573.694 316.335C573.203 322.114 570.522 327.509 566.172 331.473C561.822 335.437 556.112 337.688 550.152 337.788H440.985L418.046 350.508L421.421 302.034C421.908 296.254 424.587 290.857 428.938 286.892C433.29 282.927 439.001 280.678 444.963 280.581Z" fill="#5BA3D9"/>
<path opacity="0.5" d="M548.573 301.07H447.408V304.653H548.573V301.07Z" fill="#5BA3D9"/>
<path opacity="0.5" d="M486.506 313.731H446.526V317.314H486.506V313.731Z" fill="#5BA3D9"/>
<path opacity="0.5" d="M521.842 313.731H496.303V317.314H521.842V313.731Z" fill="#5BA3D9"/>
</g>
<defs>
<clipPath id="clip0_139_261">
<rect width="773.902" height="752.713" fill="white"/>
</clipPath>
</defs>
</svg>
